<?xml version="1.0" standalone="no"?><!DOCTYPE svg PUBLIC "-//W3C//DTD SVG 1.1//EN" "http://www.w3.org/Graphics/SVG/1.1/DTD/svg11.dtd"><svg t="1588294483017" class="icon" viewBox="0 0 1024 1024" version="1.1" xmlns="http://www.w3.org/2000/svg" p-id="4048" xmlns:xlink="http://www.w3.org/1999/xlink" width="200" height="200"><defs><style type="text/css"></style></defs><path d="M969.94 979.62h-0.23c-17.12-0.33-25.82-10.39-32.2-17.74-5.72-6.6-8.52-9.54-15-9.66s-9.36 2.71-15.31 9.08c-6.63 7.12-15.85 16.54-32.85 16.51-17.1-0.32-25.81-10.38-32.16-17.73-5.71-6.62-8.51-9.54-14.93-9.66-6.09-0.12-9.3 2.71-15.26 9.08-6.51 7-15.4 16.51-32 16.51h-0.84c-17.1-0.32-25.79-10.39-32.15-17.74-5.71-6.6-8.49-9.52-14.9-9.65-7.11 0.11-9.33 2.71-15.26 9.08-6.6 7.09-15.35 16.31-32.77 16.51-17.09-0.32-25.79-10.39-32.15-17.74-5.71-6.6-8.51-9.52-14.91-9.65-7.09-0.11-9.34 2.71-15.28 9.08-6.51 7-15.4 16.51-32 16.51H589c-17.1-0.32-25.79-10.39-32.15-17.74-5.71-6.6-8.49-9.52-14.88-9.65-6.85 0.18-9.31 2.71-15.26 9.08-6.62 7.09-15.35 16.78-32.79 16.51-17.09-0.32-25.79-10.39-32.13-17.74-5.71-6.6-8.51-9.52-14.9-9.65a11.69 11.69 0 0 1-11.47-11.9c0.12-6.45 5.07-12.1 11.9-11.47 17.1 0.32 25.81 10.39 32.15 17.74 5.71 6.6 8.51 9.52 14.9 9.65 7.15-0.08 9.33-2.71 15.26-9.08 6.51-7 15.38-16.51 32-16.51h0.84c17.09 0.32 25.77 10.39 32.13 17.74 5.71 6.6 8.49 9.52 14.9 9.65 6.85 0 9.33-2.71 15.28-9.08 6.62-7.11 15.18-16.8 32.8-16.51 17.1 0.32 25.81 10.39 32.16 17.74 5.71 6.6 8.49 9.52 14.9 9.65 6.88 0.23 9.3-2.71 15.23-9.07 6.51-7 15.4-16.52 32-16.52h0.84c17.1 0.32 25.79 10.39 32.15 17.74 5.71 6.6 8.49 9.52 14.9 9.65 6.82 0 9.34-2.71 15.29-9.08 6.63-7.11 15.84-16.65 32.79-16.51 17.12 0.33 25.82 10.39 32.16 17.74 5.72 6.6 8.51 9.52 14.93 9.65 6.53-0.14 9.34-2.69 15.32-9.08 6.53-7 15.44-16.51 32-16.51h0.75c17.13 0.33 25.84 10.39 32.21 17.74 5.72 6.6 8.52 9.54 15 9.66a11.69 11.69 0 0 1-0.23 23.37zM666.44 874h-0.23c-17.12-0.33-25.82-10.39-32.18-17.74-5.72-6.62-8.54-9.54-15-9.66-6.12-0.2-9.34 2.69-15.32 9.1-6.63 7.11-15.81 16.62-32.85 16.49-17.1-0.32-25.81-10.38-32.16-17.73-5.71-6.62-8.51-9.54-14.93-9.66h-0.4c-6.13 0-9 2.83-14.87 9.08-6.51 7-15.4 16.51-32 16.51h-0.84c-17.1-0.32-25.81-10.39-32.16-17.74-5.71-6.6-8.49-9.52-14.9-9.65-6.89 0.26-9.3 2.71-15.23 9.07-6.51 7-15.4 16.52-32 16.52h-0.84c-17.1-0.32-25.79-10.39-32.15-17.74-5.71-6.6-8.49-9.52-14.9-9.65-6.86-0.21-9.33 2.71-15.28 9.08-6.62 7.09-15.34 16.36-32.82 16.51-17.09-0.32-25.77-10.39-32.13-17.74-5.71-6.6-8.49-9.52-14.9-9.65-6.63-0.06-9.31 2.71-15.26 9.08-6.6 7.09-15.28 16.19-32.77 16.51-17.1-0.32-25.79-10.39-32.15-17.74-5.71-6.6-8.49-9.52-14.9-9.65a11.69 11.69 0 0 1-11.47-11.9c0.12-6.45 4.78-12 11.9-11.47 17.12 0.32 25.81 10.39 32.16 17.74 5.71 6.6 8.49 9.52 14.9 9.65h0.4c6.13 0 9-2.83 14.83-9.07 6.62-7.12 15.17-16.95 32.8-16.52 17.1 0.32 25.79 10.39 32.15 17.74 5.71 6.6 8.49 9.52 14.88 9.65 7.11-0.09 9.34-2.71 15.28-9.08 6.51-7 15.4-16.51 32-16.51h0.9c17.1 0.32 25.79 10.39 32.15 17.74 5.71 6.6 8.49 9.52 14.9 9.65 7.09 0 9.33-2.71 15.26-9.08 6.6-7.09 15.4-16.33 32.77-16.51 17.09 0.32 25.79 10.39 32.15 17.74 5.71 6.6 8.51 9.52 14.91 9.65h0.4c6.15 0 9.05-2.83 14.88-9.08 6.62-7.11 15.22-16.71 32.8-16.51 17.1 0.33 25.81 10.39 32.15 17.74 5.72 6.6 8.51 9.52 14.93 9.65 6.27-0.15 9.34-2.69 15.34-9.08 6.63-7.11 16.05-17.13 32.83-16.51 17.13 0.33 25.84 10.39 32.2 17.74 5.72 6.62 8.54 9.54 15 9.66a11.69 11.69 0 0 1-0.23 23.37zM807.47 869c-21.83 0-33.53-8.61-42.92-15.53-8.34-6.13-14.91-11-29.08-11a11.69 11.69 0 0 1 0-23.37c21.83 0 33.53 8.61 42.92 15.53 8.34 6.13 14.91 11 29.08 11s20.72-4.84 29.06-11c9.39-6.92 21.09-15.53 42.92-15.53a11.69 11.69 0 0 1 0 23.37c-14.17 0-20.74 4.84-29.08 11C841 860.4 829.31 869 807.47 869zM476.8 744.81c-142.75 0-242.7-80-256.91-92-16.48-14-158.3-141.3-69.37-316.8l1.07-1.81c3-4.34 13.21-18.88 19-24.31 8.7-8.17 20.25-18.12 20.25-18.12l2-1.6c23.64-19 67.63-54.24 142-64.28a15.58 15.58 0 1 1 4.16 30.87c-65.78 8.87-105.38 40.64-126.67 57.7l-1.54 1.25S200 325 191.89 332.6c-2.18 2-8.87 11-14.06 18.44C100.69 504.71 225.5 616.73 240 629c17.59 14.88 177.9 142.86 385.33 52.71 202.58-88.08 225-228.79 227.41-256.1a22.21 22.21 0 0 1 17.7-19.83c17.51-3.7 84.28-29.93 89.83-90.56 1.83-19.95-2.75-33.28-13.62-39.59-17.94-10.45-50.35-3.18-63.87 6.25-5.71 4-12.07 11.88-17.91 22.31a22.3 22.3 0 0 1-36.38 3.59c-15.29-17.79-18.88-20.94-19.23-21.24-12.67-10.53-46-21-67.42-12.86-12.05 4.59-19.1 14.71-21.51 30.9-8.44 56.31 87.53 97.47 91.63 99.19A22 22 0 0 1 824.27 432c-4.46 11.7-15.92 23.84-35 37.06-44.73 31.05-90.32 15.46-112.24-16-7.84-11.21-15-22.73-22.56-34.93-36.87-59.32-75-120.66-193.89-153.31a288.84 288.84 0 0 0-73.7-10.48 15.58 15.58 0 0 1 0.14-31.16h0.14a320.13 320.13 0 0 1 81.68 11.59c130.68 35.88 175.83 108.53 212.1 166.91 7.35 11.84 14.3 23 21.65 33.55 9.78 14 35.31 31.53 68.92 8.2 9.34-6.48 15-11.62 18.5-15.4-32.23-15.22-110.71-59.81-100.5-128.03 5.2-34.77 25.3-49.31 41.23-55.38 34.33-13.1 79.21 2 98.43 18 1.22 1 4.12 3.42 15.06 15.82 5.43-8 12.45-16.31 20.75-22.09 21.1-14.65 66.66-25.46 97.36-7.59 15.29 8.9 32.74 28.18 29 69.37-6.69 73-76.58 107.6-108.23 116.66-5.39 41.48-38.91 185.82-245.33 275.56-57.56 24.98-111.78 34.46-160.98 34.46z m400.1-308.52h-0.08z m-77-3.79z m-4.67-11.65z" p-id="4049" fill="#1296db"></path><path d="M336.88 453.63a30 30 0 1 1 30-30 30 30 0 0 1-30 30z m0-44.41a14.42 14.42 0 1 0 14.41 14.41 14.43 14.43 0 0 0-14.41-14.41zM785.47 378.11a6.16 6.16 0 0 1-2.51-0.53c-1-0.44-24.79-11-37.51-27.74-12.35-16.23-17.16-31.56-14.27-45.55 3.64-17.7 18.36-26.2 19-26.57a6.23 6.23 0 0 1 6.15 10.85c-0.21 0.12-10.57 6.31-13 18.38-2.05 10.29 2 22.17 12 35.34 10.74 14.1 32.39 23.78 32.61 23.87a6.24 6.24 0 0 1-2.51 11.94zM342.48 511.42c-17.86 0-26.85-6.25-28.22-7.29a7.79 7.79 0 0 1 9.3-12.51c0.49 0.33 15.23 9.78 47.55-1.08a7.78 7.78 0 1 1 5 14.76c-13.56 4.55-24.7 6.12-33.63 6.12zM210.3 568.59a7.74 7.74 0 0 1-5.9-2.71c-51.12-59.43-35.76-149.28-35.07-153.07a7.79 7.79 0 1 1 15.34 2.74c-0.15 0.85-14.7 86.42 31.54 140.16a7.79 7.79 0 0 1-5.9 12.87zM182.6 399.33a7.73 7.73 0 0 1-2.46-0.4 7.81 7.81 0 0 1-4.93-9.86l0.88-2.65a7.79 7.79 0 1 1 14.79 4.93L190 394a7.82 7.82 0 0 1-7.4 5.33zM471.2 161.68a32.74 32.74 0 1 1 32.8-32.74 32.77 32.77 0 0 1-32.8 32.74z m0-53.8a21.06 21.06 0 1 0 21.07 21.06 21.08 21.08 0 0 0-21.07-21.06zM736.58 85.49a20.56 20.56 0 1 1 20.56-20.56 20.58 20.58 0 0 1-20.56 20.56z m0-29.43a8.87 8.87 0 1 0 8.87 8.87 8.89 8.89 0 0 0-8.87-8.87zM679.92 815.21a20.55 20.55 0 1 1 20.56-20.54 20.57 20.57 0 0 1-20.56 20.54z m0-29.41a8.86 8.86 0 1 0 8.87 8.87 8.89 8.89 0 0 0-8.87-8.87zM46.62 331.79a17 17 0 1 1 17-17 17 17 0 0 1-17 17z m0-22.37a5.34 5.34 0 1 0 5.38 5.35 5.34 5.34 0 0 0-5.38-5.35zM25 227.86a25 25 0 1 1 25-25 25 25 0 0 1-25 25z m0-38.34a13.33 13.33 0 1 0 13.33 13.33A13.34 13.34 0 0 0 25 189.51zM97.48 560.38a25 25 0 1 1 25-25 25 25 0 0 1-25 25z m0-38.34a13.33 13.33 0 1 0 13.33 13.33A13.34 13.34 0 0 0 97.48 522zM647.29 146.15a15 15 0 1 1 15-15 15 15 0 0 1-15 15z m0-18.26a3.29 3.29 0 0 0-3.29 3.29c0 3.64 6.59 3.61 6.59 0a3.3 3.3 0 0 0-3.3-3.29zM898.23 166a27.49 27.49 0 1 1 27.48-27.48A27.52 27.52 0 0 1 898.23 166z m0-43.29A15.8 15.8 0 1 0 914 138.53a15.82 15.82 0 0 0-15.77-15.81zM1002.74 598.24A21.26 21.26 0 1 1 1024 577a21.29 21.29 0 0 1-21.26 21.24z m0-30.84a9.58 9.58 0 1 0 9.57 9.59 9.6 9.6 0 0 0-9.57-9.59zM247 815.35A29.34 29.34 0 1 1 276.37 786 29.37 29.37 0 0 1 247 815.35z m0-47A17.66 17.66 0 1 0 264.68 786 17.69 17.69 0 0 0 247 768.35zM967.66 908.45a17.76 17.76 0 1 1 17.77-17.76 17.79 17.79 0 0 1-17.77 17.76z m0-23.84a6.08 6.08 0 1 0 6.09 6.09 6.08 6.08 0 0 0-6.09-6.09zM177 151.6a16.77 16.77 0 1 1 16.77-16.77A16.78 16.78 0 0 1 177 151.6z m0-21.85a5.08 5.08 0 1 0 5.08 5.08 5.09 5.09 0 0 0-5.08-5.08zM359.08 187.25a11.69 11.69 0 0 1-11.69-11.69V94.25c0-4.44-5.93-9.4-14.44-9.4s-14.45 5-14.45 9.4a11.69 11.69 0 0 1-23.37 0c0-18.08 17-32.77 37.83-32.77s37.81 14.7 37.81 32.77v81.31a11.69 11.69 0 0 1-11.69 11.69z" p-id="4050" fill="#1296db"></path><path d="M359.08 217a11.69 11.69 0 0 1-11.69-11.69v-81.25c0-18.08 17-32.77 37.81-32.77S423 106 423 124.06a11.69 11.69 0 0 1-23.37 0c0-4.44-5.93-9.4-14.44-9.4s-14.44 5-14.44 9.4v81.29A11.69 11.69 0 0 1 359.08 217z" p-id="4051" fill="#1296db"></path></svg>